<?xml version="1.0" encoding="UTF-8" standalone="no"?>
<!DOCTYPE svg PUBLIC "-//W3C//DTD SVG 1.1//EN"
 "http://www.w3.org/Graphics/SVG/1.1/DTD/svg11.dtd">
<!-- Generated by graphviz version 2.43.0 (0)
 -->
<!-- Title: %3 Pages: 1 -->
<svg width="301pt" height="1193pt"
 viewBox="0.00 0.00 301.44 1193.44" xmlns="http://www.w3.org/2000/svg" xmlns:xlink="http://www.w3.org/1999/xlink">
<g id="graph0" class="graph" transform="scale(1 1) rotate(0) translate(4 1189.44)">
<title>%3</title>
<polygon fill="white" stroke="transparent" points="-4,4 -4,-1189.44 297.44,-1189.44 297.44,4 -4,4"/>
<!-- A -->
<g id="node1" class="node">
<title>A</title>
<polygon fill="aqua" stroke="black" points="233.67,-1148.27 194.37,-1148.27 182.22,-1185.65 170.08,-1148.27 130.78,-1148.27 162.57,-1125.17 150.43,-1087.79 182.22,-1110.89 214.02,-1087.79 201.87,-1125.17 233.67,-1148.27"/>
<text text-anchor="middle" x="182.22" y="-1133.02" font-family="Times,serif" font-size="14.00">A</text>
</g>
<!-- B -->
<g id="node2" class="node">
<title>B</title>
<polygon fill="aqua" stroke="black" points="168.67,-992.84 129.37,-992.84 117.22,-1030.22 105.08,-992.84 65.78,-992.84 97.57,-969.74 85.43,-932.36 117.22,-955.46 149.02,-932.36 136.87,-969.74 168.67,-992.84"/>
<text text-anchor="middle" x="117.22" y="-977.59" font-family="Times,serif" font-size="14.00">B</text>
</g>
<!-- A&#45;&#45;B -->
<g id="edge1" class="edge">
<title>A&#45;&#45;B</title>
<path fill="none" stroke="red" d="M166.98,-1099.75C154.3,-1069.81 136.68,-1028.21 126.16,-1003.4"/>
<text text-anchor="middle" x="160.72" y="-1054.01" font-family="Times,serif" font-size="20.00">1</text>
</g>
<!-- C -->
<g id="node3" class="node">
<title>C</title>
<polygon fill="aqua" stroke="black" points="255.67,-837.41 216.37,-837.41 204.22,-874.79 192.08,-837.41 152.78,-837.41 184.57,-814.31 172.43,-776.93 204.22,-800.03 236.02,-776.93 223.87,-814.31 255.67,-837.41"/>
<text text-anchor="middle" x="204.22" y="-822.16" font-family="Times,serif" font-size="14.00">C</text>
</g>
<!-- A&#45;&#45;C -->
<g id="edge2" class="edge">
<title>A&#45;&#45;C</title>
<path fill="none" stroke="red" d="M184.08,-1109.65C187.94,-1055.41 196.87,-930.11 201.43,-866.08"/>
<text text-anchor="middle" x="202.72" y="-976.29" font-family="Times,serif" font-size="20.00">4</text>
</g>
<!-- B&#45;&#45;C -->
<g id="edge6" class="edge">
<title>B&#45;&#45;C</title>
<path fill="none" stroke="red" d="M141.23,-937.96C158.73,-907.09 181.54,-866.86 194.36,-844.26"/>
<text text-anchor="middle" x="172.72" y="-898.58" font-family="Times,serif" font-size="20.00">2</text>
</g>
<!-- G -->
<g id="node4" class="node">
<title>G</title>
<polygon fill="aqua" stroke="black" points="165.67,-215.7 126.37,-215.7 114.22,-253.07 102.08,-215.7 62.78,-215.7 94.57,-192.59 82.43,-155.21 114.22,-178.32 146.02,-155.21 133.87,-192.59 165.67,-215.7"/>
<text text-anchor="middle" x="114.22" y="-200.44" font-family="Times,serif" font-size="14.00">G</text>
</g>
<!-- B&#45;&#45;G -->
<g id="edge3" class="edge">
<title>B&#45;&#45;G</title>
<path fill="none" stroke="red" d="M101.95,-944.43C90.3,-913.79 76.22,-868.22 76.22,-826.86 76.22,-826.86 76.22,-826.86 76.22,-358.57 76.22,-310.28 94.18,-255.87 105.41,-226.58"/>
<text text-anchor="middle" x="82.72" y="-587.72" font-family="Times,serif" font-size="20.00">4</text>
</g>
<!-- H -->
<g id="node5" class="node">
<title>H</title>
<polygon fill="aqua" stroke="black" points="102.67,-60.27 63.37,-60.27 51.22,-97.65 39.08,-60.27 -0.22,-60.27 31.57,-37.16 19.43,0.22 51.22,-22.89 83.02,0.22 70.87,-37.16 102.67,-60.27"/>
<text text-anchor="middle" x="51.22" y="-45.01" font-family="Times,serif" font-size="14.00">H</text>
</g>
<!-- B&#45;&#45;H -->
<g id="edge4" class="edge">
<title>B&#45;&#45;H</title>
<path fill="none" stroke="red" d="M92.17,-953.22C68.06,-924.24 35.22,-875.79 35.22,-826.86 35.22,-826.86 35.22,-826.86 35.22,-203.14 35.22,-160.83 41.32,-112.3 45.98,-81.35"/>
<text text-anchor="middle" x="41.72" y="-510" font-family="Times,serif" font-size="20.00">2</text>
</g>
<!-- D -->
<g id="node6" class="node">
<title>D</title>
<polygon fill="aqua" stroke="black" points="206.67,-681.98 167.37,-681.98 155.22,-719.36 143.08,-681.98 103.78,-681.98 135.57,-658.88 123.43,-621.5 155.22,-644.6 187.02,-621.5 174.87,-658.88 206.67,-681.98"/>
<text text-anchor="middle" x="155.22" y="-666.73" font-family="Times,serif" font-size="14.00">D</text>
</g>
<!-- B&#45;&#45;D -->
<g id="edge5" class="edge">
<title>B&#45;&#45;D</title>
<path fill="none" stroke="red" d="M117.71,-955.14C118.73,-916.62 121.86,-840.8 131.22,-777.15 135.25,-749.78 142.56,-718.98 148.06,-697.72"/>
<text text-anchor="middle" x="137.72" y="-820.86" font-family="Times,serif" font-size="20.00">9</text>
</g>
<!-- C&#45;&#45;D -->
<g id="edge7" class="edge">
<title>C&#45;&#45;D</title>
<path fill="none" stroke="red" d="M193.83,-792.32C184.62,-763.47 171.36,-721.97 163.03,-695.87"/>
<text text-anchor="middle" x="188.72" y="-743.15" font-family="Times,serif" font-size="20.00">1</text>
</g>
<!-- E -->
<g id="node7" class="node">
<title>E</title>
<polygon fill="aqua" stroke="black" points="293.67,-526.55 254.37,-526.55 242.22,-563.93 230.08,-526.55 190.78,-526.55 222.57,-503.45 210.43,-466.07 242.22,-489.17 274.02,-466.07 261.87,-503.45 293.67,-526.55"/>
<text text-anchor="middle" x="242.22" y="-511.3" font-family="Times,serif" font-size="14.00">E</text>
</g>
<!-- C&#45;&#45;E -->
<g id="edge8" class="edge">
<title>C&#45;&#45;E</title>
<path fill="none" stroke="red" d="M207.59,-797.45C214.51,-741.2 230.31,-612.82 237.94,-550.8"/>
<text text-anchor="middle" x="234.72" y="-665.43" font-family="Times,serif" font-size="20.00">3</text>
</g>
<!-- G&#45;&#45;H -->
<g id="edge14" class="edge">
<title>G&#45;&#45;H</title>
<path fill="none" stroke="red" d="M99.61,-167.56C87.32,-137.64 70.17,-95.86 59.93,-70.93"/>
<text text-anchor="middle" x="100.22" y="-121.43" font-family="Times,serif" font-size="20.00">14</text>
</g>
<!-- D&#45;&#45;G -->
<g id="edge11" class="edge">
<title>D&#45;&#45;G</title>
<path fill="none" stroke="red" d="M152.87,-642.8C145.94,-564.38 125.61,-334.08 117.56,-242.92"/>
<text text-anchor="middle" x="142.72" y="-432.29" font-family="Times,serif" font-size="20.00">1</text>
</g>
<!-- D&#45;&#45;E -->
<g id="edge9" class="edge">
<title>D&#45;&#45;E</title>
<path fill="none" stroke="red" d="M179.23,-627.1C196.73,-596.23 219.54,-556 232.36,-533.4"/>
<text text-anchor="middle" x="209.72" y="-587.72" font-family="Times,serif" font-size="20.00">1</text>
</g>
<!-- F -->
<g id="node8" class="node">
<title>F</title>
<polygon fill="aqua" stroke="black" points="244.67,-371.12 205.37,-371.12 193.22,-408.5 181.08,-371.12 141.78,-371.12 173.57,-348.02 161.43,-310.64 193.22,-333.75 225.02,-310.64 212.87,-348.02 244.67,-371.12"/>
<text text-anchor="middle" x="193.22" y="-355.87" font-family="Times,serif" font-size="14.00">F</text>
</g>
<!-- D&#45;&#45;F -->
<g id="edge10" class="edge">
<title>D&#45;&#45;F</title>
<path fill="none" stroke="red" d="M155.71,-644.28C156.73,-605.77 159.86,-529.94 169.22,-466.29 173.25,-438.92 180.56,-408.12 186.06,-386.86"/>
<text text-anchor="middle" x="175.72" y="-510" font-family="Times,serif" font-size="20.00">3</text>
</g>
<!-- E&#45;&#45;F -->
<g id="edge12" class="edge">
<title>E&#45;&#45;F</title>
<path fill="none" stroke="red" d="M231.83,-481.47C222.62,-452.61 209.36,-411.11 201.03,-385.01"/>
<text text-anchor="middle" x="226.72" y="-432.29" font-family="Times,serif" font-size="20.00">1</text>
</g>
<!-- F&#45;&#45;G -->
<g id="edge13" class="edge">
<title>F&#45;&#45;G</title>
<path fill="none" stroke="red" d="M172.88,-319.06C157.06,-288.34 135.83,-247.12 123.73,-223.62"/>
<text text-anchor="middle" x="165.72" y="-276.86" font-family="Times,serif" font-size="20.00">6</text>
</g>
</g>
</svg>
