<?xml version="1.0" encoding="UTF-8" standalone="no"?>
<!DOCTYPE svg PUBLIC "-//W3C//DTD SVG 1.1//EN"
 "http://www.w3.org/Graphics/SVG/1.1/DTD/svg11.dtd">
<!-- Generated by graphviz version 2.43.0 (0)
 -->
<!-- Title: %3 Pages: 1 -->
<svg width="822pt" height="661pt"
 viewBox="0.00 0.00 822.00 661.00" xmlns="http://www.w3.org/2000/svg" xmlns:xlink="http://www.w3.org/1999/xlink">
<g id="graph0" class="graph" transform="scale(1 1) rotate(0) translate(4 657)">
<title>%3</title>
<polygon fill="white" stroke="transparent" points="-4,4 -4,-657 818,-657 818,4 -4,4"/>
<!-- A -->
<g id="node1" class="node">
<title>A</title>
<polygon fill="aqua" stroke="transparent" points="814,-437 648,-437 648,-324 814,-324 814,-437"/>
<image xlink:href="icon_router.png" width="166px" height="113px" preserveAspectRatio="xMinYMin meet" x="648" y="-437"/>
<text text-anchor="middle" x="731" y="-376.8" font-family="Times,serif" font-size="14.00">A</text>
</g>
<!-- B -->
<g id="node2" class="node">
<title>B</title>
<polygon fill="aqua" stroke="transparent" points="598,-617 432,-617 432,-504 598,-504 598,-617"/>
<image xlink:href="icon_router.png" width="166px" height="113px" preserveAspectRatio="xMinYMin meet" x="432" y="-617"/>
<text text-anchor="middle" x="515" y="-556.8" font-family="Times,serif" font-size="14.00">B</text>
</g>
<!-- A&#45;&#45;B -->
<g id="edge1" class="edge">
<title>A&#45;&#45;B</title>
<path fill="none" stroke="red" d="M662.95,-437.21C637.48,-458.43 608.55,-482.54 583.08,-503.77"/>
<text text-anchor="middle" x="616.51" y="-476.49" font-family="Times,serif" font-size="20.00">1</text>
</g>
<!-- C -->
<g id="node3" class="node">
<title>C</title>
<polygon fill="aqua" stroke="transparent" points="598,-329 432,-329 432,-216 598,-216 598,-329"/>
<image xlink:href="icon_router.png" width="166px" height="113px" preserveAspectRatio="xMinYMin meet" x="432" y="-329"/>
<text text-anchor="middle" x="515" y="-268.8" font-family="Times,serif" font-size="14.00">C</text>
</g>
<!-- A&#45;&#45;C -->
<g id="edge2" class="edge">
<title>A&#45;&#45;C</title>
<path fill="none" stroke="red" d="M647.8,-338.9C631.52,-330.76 614.44,-322.22 598.16,-314.08"/>
<text text-anchor="middle" x="616.48" y="-332.49" font-family="Times,serif" font-size="20.00">4</text>
</g>
<!-- B&#45;&#45;C -->
<g id="edge6" class="edge">
<title>B&#45;&#45;C</title>
<path fill="none" stroke="red" d="M515,-503.94C515,-453.49 515,-379.98 515,-329.42"/>
<text text-anchor="middle" x="508.5" y="-422.68" font-family="Times,serif" font-size="20.00">2</text>
</g>
<!-- D -->
<g id="node4" class="node">
<title>D</title>
<polygon fill="aqua" stroke="transparent" points="382,-329 216,-329 216,-216 382,-216 382,-329"/>
<image xlink:href="icon_router.png" width="166px" height="113px" preserveAspectRatio="xMinYMin meet" x="216" y="-329"/>
<text text-anchor="middle" x="299" y="-268.8" font-family="Times,serif" font-size="14.00">D</text>
</g>
<!-- B&#45;&#45;D -->
<g id="edge5" class="edge">
<title>B&#45;&#45;D</title>
<path fill="none" stroke="red" d="M472.58,-503.94C434.74,-453.49 379.61,-379.98 341.69,-329.42"/>
<text text-anchor="middle" x="400.64" y="-422.68" font-family="Times,serif" font-size="20.00">9</text>
</g>
<!-- G -->
<g id="node7" class="node">
<title>G</title>
<polygon fill="aqua" stroke="transparent" points="216.4,-329 50.4,-329 50.4,-216 216.4,-216 216.4,-329"/>
<image xlink:href="icon_router.png" width="166px" height="113px" preserveAspectRatio="xMinYMin meet" x="50.4" y="-329"/>
<text text-anchor="middle" x="133.4" y="-268.8" font-family="Times,serif" font-size="14.00">G</text>
</g>
<!-- B&#45;&#45;G -->
<g id="edge3" class="edge">
<title>B&#45;&#45;G</title>
<path fill="none" stroke="red" d="M440.06,-503.94C373.1,-453.41 275.5,-379.74 208.49,-329.17"/>
<text text-anchor="middle" x="317.78" y="-422.56" font-family="Times,serif" font-size="20.00">4</text>
</g>
<!-- H -->
<g id="node8" class="node">
<title>H</title>
<polygon fill="aqua" stroke="transparent" points="310,-653 144,-653 144,-540 310,-540 310,-653"/>
<image xlink:href="icon_router.png" width="166px" height="113px" preserveAspectRatio="xMinYMin meet" x="144" y="-653"/>
<text text-anchor="middle" x="227" y="-592.8" font-family="Times,serif" font-size="14.00">H</text>
</g>
<!-- B&#45;&#45;H -->
<g id="edge4" class="edge">
<title>B&#45;&#45;H</title>
<path fill="none" stroke="red" d="M431.7,-570.91C393.49,-575.69 348.3,-581.34 310.11,-586.11"/>
<text text-anchor="middle" x="364.41" y="-584.51" font-family="Times,serif" font-size="20.00">2</text>
</g>
<!-- C&#45;&#45;D -->
<g id="edge7" class="edge">
<title>C&#45;&#45;D</title>
<path fill="none" stroke="red" d="M431.8,-272.5C415.52,-272.5 398.44,-272.5 382.16,-272.5"/>
<text text-anchor="middle" x="400.48" y="-278.5" font-family="Times,serif" font-size="20.00">1</text>
</g>
<!-- E -->
<g id="node5" class="node">
<title>E</title>
<polygon fill="aqua" stroke="transparent" points="432.4,-113 266.4,-113 266.4,0 432.4,0 432.4,-113"/>
<image xlink:href="icon_router.png" width="166px" height="113px" preserveAspectRatio="xMinYMin meet" x="266.4" y="-113"/>
<text text-anchor="middle" x="349.4" y="-52.8" font-family="Times,serif" font-size="14.00">E</text>
</g>
<!-- C&#45;&#45;E -->
<g id="edge8" class="edge">
<title>C&#45;&#45;E</title>
<path fill="none" stroke="red" d="M471.49,-215.75C447.25,-184.12 417.15,-144.87 392.91,-113.25"/>
<text text-anchor="middle" x="425.7" y="-170.5" font-family="Times,serif" font-size="20.00">3</text>
</g>
<!-- D&#45;&#45;E -->
<g id="edge9" class="edge">
<title>D&#45;&#45;E</title>
<path fill="none" stroke="red" d="M312.24,-215.75C319.62,-184.12 328.78,-144.87 336.16,-113.25"/>
<text text-anchor="middle" x="317.7" y="-170.5" font-family="Times,serif" font-size="20.00">1</text>
</g>
<!-- F -->
<g id="node6" class="node">
<title>F</title>
<polygon fill="aqua" stroke="transparent" points="166,-221 0,-221 0,-108 166,-108 166,-221"/>
<image xlink:href="icon_router.png" width="166px" height="113px" preserveAspectRatio="xMinYMin meet" x="0" y="-221"/>
<text text-anchor="middle" x="83" y="-160.8" font-family="Times,serif" font-size="14.00">F</text>
</g>
<!-- D&#45;&#45;F -->
<g id="edge10" class="edge">
<title>D&#45;&#45;F</title>
<path fill="none" stroke="red" d="M215.8,-230.9C199.52,-222.76 182.44,-214.22 166.16,-206.08"/>
<text text-anchor="middle" x="184.48" y="-202.49" font-family="Times,serif" font-size="20.00">3</text>
</g>
<!-- D&#45;&#45;G -->
<g id="edge11" class="edge">
<title>D&#45;&#45;G</title>
<path fill="none" stroke="red" d="M215.71,-272.5C215.55,-272.5 215.39,-272.5 215.23,-272.5"/>
<text text-anchor="middle" x="208.97" y="-278.5" font-family="Times,serif" font-size="20.00">1</text>
</g>
<!-- E&#45;&#45;F -->
<g id="edge12" class="edge">
<title>E&#45;&#45;F</title>
<path fill="none" stroke="red" d="M266.21,-90.23C234.3,-103.16 197.91,-117.91 166.02,-130.84"/>
<text text-anchor="middle" x="209.61" y="-116.54" font-family="Times,serif" font-size="20.00">1</text>
</g>
<!-- F&#45;&#45;G -->
<g id="edge13" class="edge">
<title>F&#45;&#45;G</title>
<path fill="none" stroke="red" d="M109.38,-221.03C109.43,-221.13 109.48,-221.23 109.52,-221.34"/>
<text text-anchor="middle" x="102.95" y="-227.18" font-family="Times,serif" font-size="20.00">6</text>
</g>
<!-- G&#45;&#45;H -->
<g id="edge14" class="edge">
<title>G&#45;&#45;H</title>
<path fill="none" stroke="red" d="M149.81,-329.31C166.9,-388.47 193.52,-480.62 210.61,-539.76"/>
<text text-anchor="middle" x="167.21" y="-440.53" font-family="Times,serif" font-size="20.00">14</text>
</g>
</g>
</svg>
